<?xml version='1.0' encoding='utf-8'?>
<svg xmlns="http://www.w3.org/2000/svg" width="1024" height="1024" viewBox="0 0 1024 1024">
  <g transform="translate(-1790.723345 -616.464923)">
    <g transform="scale(5.248521488)">
      <g transform="translate(404.266667 132.066667)">
        <g>
          <g transform="scale(0.919792 0.919792)">
            <g>
              <path d="M32 6L32 58" stroke="#333333" stroke-width="4" stroke-linecap="round" stroke-linejoin="round" />
            </g>
          </g>
        </g>
      </g>
      <g transform="translate(436.266667 132.066667)">
        <g transform="rotate(37.000000 29.433333 29.433333)">
          <g transform="scale(0.919792 0.919792)">
            <g>
              <path d="M32 6L32 58" stroke="#333333" stroke-width="4" stroke-linecap="round" stroke-linejoin="round" />
            </g>
          </g>
        </g>
      </g>
      <g transform="translate(370.200000 144.266667)">
        <g transform="rotate(316.000000 29.433333 29.433333)">
          <g transform="scale(0.919792 0.919792)">
            <g>
              <path d="M32 6L32 58" stroke="#333333" stroke-width="4" stroke-linecap="round" stroke-linejoin="round" />
            </g>
          </g>
        </g>
      </g>
      <g transform="translate(359.400000 187.400000)">
        <g transform="rotate(76.000000 29.433333 29.433333)">
          <g transform="scale(0.919792 0.919792)">
            <g>
              <path d="M32 6L32 58" stroke="#333333" stroke-width="4" stroke-linecap="round" stroke-linejoin="round" />
            </g>
          </g>
        </g>
      </g>
      <g transform="translate(377.933333 214.800000)">
        <g transform="rotate(49.000000 29.433333 29.433333)">
          <g transform="scale(0.919792 0.919792)">
            <g>
              <path d="M32 6L32 58" stroke="#333333" stroke-width="4" stroke-linecap="round" stroke-linejoin="round" />
            </g>
          </g>
        </g>
      </g>
      <g transform="translate(424.466667 198.266667)">
        <g>
          <g transform="scale(0.375000 0.375000)">
            <g>
              <defs />
              <g id="p6_单面性_10741050292.TAu" clip-path="url(#clip0_3_20973)">
                <g id="p6_Group">
                  <g id="p6_Group_2">
                    <g id="p6_Group_3">
                      <path id="p6_Vector" fill="#333333" fill-opacity="1" d="M 34.6557 0 L 238.958 0 L 238.958 29.8246 L 148.163 29.8246 L 148.163 196.08 L 147.893 199.741 L 147.773 203.072 L 147.893 206.162 L 148.163 208.953 L 148.553 211.593 L 149.063 213.903 L 149.753 216.004 L 150.654 217.864 L 151.614 219.484 L 152.844 220.685 L 154.164 221.795 L 155.664 222.695 L 157.375 223.265 L 159.115 223.505 L 161.096 223.655 L 163.286 223.385 L 167.757 222.695 L 172.047 221.404 L 176.458 219.814 L 180.868 217.864 L 185.309 215.494 L 189.72 212.673 L 194.131 209.613 L 198.631 206.012 L 200.672 204.362 L 202.652 202.741 L 204.512 201.482 L 206.102 200.371 L 207.602 199.531 L 208.923 198.901 L 210.153 198.511 L 211.113 198.271 L 212.013 198.271 L 212.703 198.511 L 213.213 199.021 L 213.724 199.741 L 213.994 200.761 L 213.994 201.842 L 213.994 203.191 L 213.724 204.812 L 213.364 206.522 L 212.703 208.262 L 212.134 210.123 L 211.383 212.043 L 210.543 213.903 L 209.583 215.884 L 208.293 218.014 L 207.063 219.935 L 205.592 222.185 L 204.122 224.285 L 202.532 226.475 L 200.672 228.846 L 198.751 231.156 L 196.771 233.526 L 194.521 235.836 L 192.21 238.267 L 189.84 240.758 L 187.41 242.948 L 184.799 244.928 L 182.098 246.908 L 179.398 248.529 L 176.728 250.119 L 173.787 251.469 L 170.817 252.55 L 167.816 253.569 L 164.666 254.41 L 161.486 255.04 L 158.275 255.489 L 154.825 255.88 L 151.494 256 L 147.893 255.88 L 144.383 255.64 L 140.782 255.25 L 137.452 254.41 L 134.391 253.45 L 131.571 251.979 L 128.87 250.239 L 126.26 248.259 L 124.07 245.949 L 121.969 243.338 L 120.109 240.368 L 118.369 237.037 L 116.899 233.526 L 115.698 229.656 L 114.738 225.515 L 113.838 220.954 L 113.238 216.153 L 112.878 210.963 L 112.878 29.8246 L 69.9712 29.8246 L 67.1507 29.5546 L 64.2703 29.7046 L 61.5699 29.9447 L 58.7495 30.5148 L 56.049 31.4149 L 53.3186 32.375 L 50.6182 33.7253 L 47.9178 35.3455 L 45.2474 37.1758 L 42.4869 39.2461 L 39.9065 41.6165 L 37.3562 44.1669 L 34.7457 46.9873 L 32.1654 50.0778 L 29.6149 53.4084 L 27.1246 57.1289 L 17.043 57.1289 L 34.6557 0 Z" />
                    </g>
                  </g>
                </g>
              </g>
              <defs>
                <clipPath id="p6_clip0_3_20973" clipPathUnits="userSpaceOnUse">
                  <rect fill="#ffffff" x="0" y="0" width="256" height="256" />
                </clipPath>
              </defs>
            </g>
          </g>
        </g>
      </g>
    </g>
  </g>
</svg>